HIERARCHY
ROOT Hips
{
	OFFSET -3.958830 18.904000 13.208200
	CHANNELS 6 Xposition Yposition Zposition Zrotation Yrotation Xrotation 
	JOINT LHipJoint
	{
		OFFSET 0.000000 0.000000 0.000000
		CHANNELS 3 Zrotation Yrotation Xrotation
		JOINT LeftUpLeg
		{
			OFFSET 1.800000 -1.400000 0.085000
			CHANNELS 3 Zrotation Yrotation Xrotation
			JOINT LeftLeg
			{
				OFFSET 2.215000 -6.000000 0.000000
				CHANNELS 3 Zrotation Yrotation Xrotation
				JOINT LeftFoot
				{
					OFFSET 2.500000 -6.900000 0.000000
					CHANNELS 3 Zrotation Yrotation Xrotation
					JOINT LeftToeBase
					{
						OFFSET 0.200000 -0.500000 1.950000
						CHANNELS 3 Zrotation Yrotation Xrotation
						End Site
						{
							OFFSET 0.000000 0.000000 0.000000
						}
					}
				}
			}
		}
	}
	JOINT RHipJoint
	{
		OFFSET 0.000000 0.000000 0.000000
		CHANNELS 3 Zrotation Yrotation Xrotation
		JOINT RightUpLeg
		{
			OFFSET -1.800000 -1.400000 0.085000
			CHANNELS 3 Zrotation Yrotation Xrotation
			JOINT RightLeg
			{
				OFFSET -2.215000 -6.000000 0.000000
				CHANNELS 3 Zrotation Yrotation Xrotation
				JOINT RightFoot
				{
					OFFSET -2.500000 -6.900000 0.000000
					CHANNELS 3 Zrotation Yrotation Xrotation
					JOINT RightToeBase
					{
						OFFSET -0.200000 -0.500000 1.950000
						CHANNELS 3 Zrotation Yrotation Xrotation
						End Site
						{
							OFFSET 0.000000 0.000000 0.000000
						}
					}
				}
			}
		}
	}
	JOINT LowerBack
	{
		OFFSET 0.000000 0.000000 0.000000
		CHANNELS 3 Zrotation Yrotation Xrotation
		JOINT Spine
		{
			OFFSET -0.087000 1.940000 -0.288900
			CHANNELS 3 Zrotation Yrotation Xrotation
			JOINT Spine1
			{
				OFFSET 0.000000 1.950000 0.060000
				CHANNELS 3 Zrotation Yrotation Xrotation
				JOINT Neck
				{
					OFFSET 0.000000 0.000000 0.000000
					CHANNELS 3 Zrotation Yrotation Xrotation
					JOINT Neck1
					{
						OFFSET 0.000000 1.600000 0.340000
						CHANNELS 3 Zrotation Yrotation Xrotation
						JOINT Head
						{
							OFFSET 0.000000 1.667000 -0.240000
							CHANNELS 3 Zrotation Yrotation Xrotation
							End Site
							{
								OFFSET 0.000000 0.000000 0.000000
							}
						}
					}
				}
				JOINT LeftShoulder
				{
					OFFSET 0.000000 0.000000 0.000000
					CHANNELS 3 Zrotation Yrotation Xrotation
					JOINT LeftArm
					{
						OFFSET 2.700000 1.550000 -0.730000
						CHANNELS 3 Zrotation Yrotation Xrotation
						JOINT LeftForeArm
						{
							OFFSET 5.450000 0.000000 0.000000
							CHANNELS 3 Zrotation Yrotation Xrotation
							JOINT LeftHand
							{
								OFFSET 3.450000 0.000000 0.000000
								CHANNELS 3 Zrotation Yrotation Xrotation
								JOINT LeftHandIndex1
								{
									OFFSET 0.750000 0.000000 0.000000
									CHANNELS 3 Zrotation Yrotation Xrotation
									End Site
									{
										OFFSET 0.000000 0.000000 0.000000
									}
								}
							}
						}
					}
				}
				JOINT RightShoulder
				{
					OFFSET 0.000000 0.000000 0.000000
					CHANNELS 3 Zrotation Yrotation Xrotation
					JOINT RightArm
					{
						OFFSET -2.700000 1.550000 -0.730000
						CHANNELS 3 Zrotation Yrotation Xrotation
						JOINT RightForeArm
						{
							OFFSET -5.450000 0.000000 0.000000
							CHANNELS 3 Zrotation Yrotation Xrotation
							JOINT RightHand
							{
								OFFSET -3.450000 0.000000 0.000000
								CHANNELS 3 Zrotation Yrotation Xrotation
								JOINT RightHandIndex1
								{
									OFFSET -0.750000 0.000000 0.000000
									CHANNELS 3 Zrotation Yrotation Xrotation
									End Site
									{
										OFFSET 0.000000 0.000000 0.000000
									}
								}
							}
						}
					}
				}
			}
		}
	}
}
MOTION
Frames: 12
Frame Time: 0.016667
-8.120950 10.443750 -2.870570 76.000581 -69.799909 -5.381653 -15.660218 13.274233 2.563030 9.164189 -0.497076 -11.713307 -11.388212 7.322776 12.689715 -0.003477 4.537598 2.838821 0.169140 0.134230 -0.078810 18.049969 -8.836919 4.561712 29.805220 0.774095 -4.713768 -25.046039 0.891165 5.086988 -0.470218 -3.459196 3.073961 0.133250 0.149630 0.034350 -2.346037 -4.332595 -7.948299 -23.044231 -1.570359 20.981795 -7.991555 0.682339 14.652319 -1.714475 -5.033980 -12.670527 -16.692692 7.117643 51.288485 15.495800 -6.789180 -3.228100 14.461003 -11.580990 3.146394 12.595320 -5.683716 -2.764806 22.930265 -62.487084 -8.767984 -3.265829 3.333365 0.217620 -0.099890 0.038130 0.111470 -10.441243 17.370491 7.919365 -16.076818 0.499834 -4.573551 -64.155723 61.650251 -30.036846 1.988705 -1.045098 -0.064270 0.137650 0.037310 0.099020 
-8.136810 10.476190 -2.778250 73.265980 -68.786726 -4.566238 -15.651234 13.400687 2.463737 9.488853 -0.331011 -10.845662 -10.198366 7.420993 14.211981 -0.002741 4.595798 2.831072 0.260980 0.240620 0.016880 18.052991 -8.848469 4.581855 29.776266 0.485820 -3.744833 -25.801968 1.334027 7.716046 -0.561915 -3.663421 2.996578 0.186230 0.090670 0.051970 -2.275826 -4.445459 -7.895644 -21.860507 -2.264777 22.445558 -7.905909 0.307872 15.983507 -0.965859 -4.285856 -11.568912 -14.122655 5.713928 50.173212 11.326990 -5.024940 -4.226430 11.699425 -11.896994 2.396444 13.583840 -6.313923 -3.143504 21.959053 -62.522162 -8.259408 -3.295932 3.343915 0.181740 -0.086680 0.052940 0.117770 -9.236882 17.212811 7.501745 -16.390289 3.420812 -4.949250 -60.475447 58.398274 -26.818997 2.027809 -1.226251 -0.015850 0.120980 -0.010100 0.064310 
-8.145860 10.504580 -2.703950 68.444393 -67.710249 -2.448638 -15.593456 13.392249 2.294376 10.570187 -0.129798 -9.714909 -8.377151 7.394076 16.101019 -0.019383 4.572841 2.820577 0.383870 0.390270 0.176980 18.088825 -9.011367 4.757769 31.006025 0.087122 -2.358569 -28.553460 2.199307 11.166270 -0.752076 -4.066994 2.838260 0.247470 -0.056880 0.046290 -2.561243 -3.960299 -7.901756 -18.242516 -3.362980 24.644828 -9.924956 0.023025 17.034368 0.336699 -3.794226 -10.847708 -12.541056 3.863241 50.500815 6.303610 -3.794880 -7.037320 8.292630 -13.129312 1.570897 16.669098 -6.219472 -3.892539 20.134838 -62.344330 -7.021082 -3.265700 3.300336 0.197560 -0.134380 0.134190 0.099390 -8.273359 17.938000 7.611164 -16.056513 6.095718 -5.643235 -55.579973 55.270580 -23.304696 2.095634 -1.377011 0.043270 0.099920 -0.096280 0.011830 
-8.130690 10.555060 -2.682340 60.138645 -67.055515 3.068369 -15.472474 13.242126 2.136584 13.892632 0.057007 -9.251026 -7.503019 7.646665 17.620936 0.020227 4.730799 2.757057 0.431460 0.453450 0.276330 18.204516 -9.033084 5.103391 34.574745 0.324594 -2.270912 -33.172351 4.125675 16.964822 -0.999354 -4.735106 2.627420 0.246000 -0.152250 0.023480 -2.971581 -3.349355 -8.113242 -13.531339 -4.457732 27.446712 -10.738866 -0.578035 16.754871 1.364352 -3.980967 -11.213260 -12.696122 2.537223 50.739676 2.682750 -3.564930 -9.262360 4.856325 -16.065129 1.759402 19.166182 -5.497375 -4.681112 16.430486 -60.303931 -4.518474 -3.233389 3.253010 0.231440 -0.186350 0.211920 0.093310 -6.663575 20.685444 8.262547 -17.556921 6.513855 -6.670477 -49.218986 53.013834 -19.346691 2.198110 -1.438770 0.073910 0.118840 -0.157910 -0.011360 
-8.147160 10.602030 -2.658750 51.385394 -64.350896 9.122162 -15.268293 12.866767 2.026938 18.413136 0.054803 -8.992556 -7.272227 7.976915 18.442590 0.030845 5.015012 2.617171 0.471450 0.474050 0.357680 18.441758 -8.976176 5.525386 39.525725 0.980892 -3.373186 -40.059231 7.669166 25.667411 -1.410673 -6.110799 2.170761 0.238340 -0.233450 0.031260 -3.628221 -2.487219 -8.457733 -7.281040 -6.556662 30.899903 -12.250753 -2.007034 15.605528 1.987804 -3.842931 -11.459218 -12.164987 1.066844 49.888804 1.386030 -4.008960 -12.146000 0.843039 -19.792300 1.881822 21.400069 -7.107354 -5.810818 14.074225 -56.369414 -2.710539 -3.225569 3.218868 0.295820 -0.244780 0.277870 0.074040 -3.848044 23.131701 8.887293 -18.195996 5.777524 -7.676667 -46.066825 52.410342 -17.671565 2.258894 -1.435790 0.090530 0.113540 -0.184270 -0.042380 
-8.190510 10.647440 -2.617910 43.072446 -61.830454 15.222893 -15.098276 12.463595 1.906803 22.784915 0.183257 -8.966675 -6.508068 8.201554 18.762705 0.063720 5.239938 2.488118 0.482810 0.470440 0.395840 18.709185 -8.622535 6.000264 45.363595 2.978806 -5.613274 -45.587211 12.613060 37.032014 -1.963030 -8.083507 1.566262 0.204530 -0.303390 0.029860 -4.125006 -1.962368 -8.859918 -1.115857 -8.662406 32.644530 -12.778800 -3.485809 13.524996 2.351186 -4.388212 -12.635198 -13.498476 1.164700 50.307468 1.743290 -4.309240 -14.588990 -2.010790 -23.111996 2.887414 20.250166 -7.613801 -6.187303 7.615775 -55.140644 0.227999 -3.164874 3.271920 0.371020 -0.317720 0.340690 0.050990 -1.905706 26.000529 9.487615 -18.253473 6.420932 -8.476322 -38.548374 50.900446 -13.560138 2.314062 -1.431226 0.107150 0.104840 -0.191310 -0.059710 
-8.252070 10.680380 -2.569310 38.925827 -59.164634 17.241070 -15.022250 12.259294 1.819748 25.463266 0.293162 -8.521359 -5.158995 8.053502 18.414709 0.095993 5.261942 2.453833 0.478500 0.451190 0.405450 18.846919 -8.337228 6.346749 49.797743 4.076724 -6.922654 -51.103803 17.417139 46.309473 -2.552610 -10.174730 0.981683 0.156560 -0.357890 0.014880 -4.454823 -1.818011 -9.106481 3.115688 -10.460909 33.951013 -12.516153 -4.902019 10.984879 2.361716 -5.941810 -14.742164 -17.725745 2.711387 51.934633 3.334850 -5.001710 -16.968290 -3.910797 -25.821153 4.096159 17.639905 -7.612100 -6.236168 1.494333 -53.503867 2.787700 -3.051747 3.324106 0.460400 -0.408710 0.403950 0.034790 -0.197520 29.515045 10.490757 -18.239840 6.534183 -9.124585 -31.105282 49.356814 -9.628256 2.370868 -1.398025 0.116840 0.115730 -0.187830 -0.061410 
-8.276770 10.663050 -2.511460 37.928861 -58.956189 18.240022 -15.011264 12.197132 1.781821 25.892950 0.264155 -8.459220 -4.989902 8.129715 18.457793 0.099331 5.274539 2.433784 0.467300 0.428620 0.415110 18.891062 -8.100015 6.581993 52.733354 5.355893 -7.961193 -58.448600 21.845043 49.840678 -2.972230 -11.727280 0.578826 0.126420 -0.395440 0.005260 -4.502782 -1.936299 -9.311414 4.073422 -10.736351 32.427541 -12.132255 -5.584007 7.366070 2.447039 -6.713203 -16.479658 -20.028265 4.272378 52.551215 3.562520 -4.224390 -18.694800 -6.308985 -27.226267 4.820811 14.929882 -8.258713 -5.604067 -2.872310 -51.276380 4.588544 -2.997921 3.303515 0.527360 -0.458820 0.442580 0.015870 1.844238 31.830610 10.969029 -16.589281 8.933399 -9.013589 -24.733645 48.917857 -6.642402 2.361674 -1.314306 0.109120 0.122050 -0.178180 -0.078420 
-8.306920 10.642230 -2.449470 36.889442 -59.127452 20.320760 -15.043634 12.338636 1.774043 25.472634 0.278997 -8.932876 -4.496017 7.945719 17.981367 0.114302 5.119833 2.478386 0.432920 0.381110 0.407080 18.867510 -7.817731 6.731424 53.754120 7.224366 -9.230514 -62.783500 24.421771 50.857646 -3.157095 -12.465424 0.400781 0.069150 -0.427160 0.000310 -4.301535 -2.484326 -9.481819 5.034342 -10.597834 29.869470 -10.736927 -6.019773 3.021799 2.950577 -7.705520 -18.650726 -23.182621 6.314319 52.230116 3.319360 -3.075700 -19.469910 -7.746094 -27.532869 5.863458 10.627440 -8.182152 -4.576175 -6.404654 -50.588169 5.917723 -2.931266 3.313106 0.569280 -0.497700 0.467120 -0.005270 2.425157 33.713379 11.225666 -14.791888 10.945540 -8.206410 -17.454232 48.555674 -3.178552 2.364332 -1.243959 0.113840 0.102050 -0.167040 -0.086610 
-8.320010 10.648980 -2.425630 31.686807 -59.364445 26.711103 -15.194913 12.149848 1.888461 27.870300 0.417554 -9.935962 -5.233306 8.316783 16.828515 0.172631 5.335801 2.379161 0.397460 0.322020 0.406810 18.849672 -6.929578 7.106060 57.078387 12.320829 -11.998842 -64.132426 28.943553 58.449598 -3.582613 -14.211718 0.002904 0.006030 -0.459120 -0.006830 -3.954158 -3.288470 -9.974317 7.285695 -10.508280 28.560029 -8.264897 -6.048727 -3.281392 3.828161 -8.668494 -20.845567 -26.448560 8.142321 51.457152 2.842450 -1.898510 -21.348250 -9.117767 -27.151619 6.819750 6.056268 -7.942026 -3.446016 -9.237820 -50.182273 6.981605 -2.866582 3.260838 0.639500 -0.548630 0.503260 -0.021850 2.587479 35.419062 11.108805 -13.180138 13.920040 -7.144515 -11.175994 45.424595 0.129441 2.390953 -1.095855 0.104800 0.104140 -0.153260 -0.103350 
-8.353440 10.645750 -2.382640 28.400603 -58.670358 31.863171 -15.347276 11.821969 1.989249 29.878701 0.425250 -11.373290 -5.921982 8.528344 15.656385 0.214235 5.462787 2.307395 0.380600 0.300870 0.422540 18.848244 -6.083826 7.555264 59.388405 18.064363 -15.496684 -60.932306 33.018752 70.116630 -4.095080 -16.434844 -0.462440 -0.029280 -0.498240 -0.009280 -3.752920 -3.855050 -10.504193 9.786148 -10.323858 26.664502 -7.647767 -5.768811 -9.721866 4.507102 -8.078284 -21.624834 -24.741433 7.639813 50.022789 2.606560 -0.369450 -23.377710 -10.487223 -26.444992 6.809751 3.187578 -9.507616 -2.223217 -13.199079 -49.846669 8.817106 -2.862822 3.207928 0.676660 -0.576180 0.534560 -0.035530 2.887029 35.335851 10.868589 -9.876044 15.957312 -5.460979 -6.098212 42.992834 2.320696 2.407613 -0.995285 0.105860 0.086570 -0.161740 -0.125770 
-8.390410 10.696370 -2.341080 26.670382 -57.581267 34.676387 -15.492368 11.392499 1.787124 30.840070 0.447431 -12.874907 -5.796042 8.677888 16.019959 0.246915 5.514769 2.276402 0.362230 0.270830 0.430420 18.929936 -5.052287 8.318375 60.051649 25.720177 -22.199749 -52.788857 34.405824 85.945108 -4.607671 -18.937447 -0.945289 -0.066600 -0.532650 -0.002090 -3.630265 -4.319491 -11.027935 11.511585 -10.741550 27.414770 -7.587359 -5.779728 -15.523673 5.063068 -7.603864 -21.502595 -22.158941 5.168027 45.624178 2.296750 -0.303850 -25.908110 -11.008907 -25.468826 6.558521 0.931402 -10.191825 -1.915105 -15.483945 -50.114775 9.817610 -2.854536 3.205261 0.683130 -0.595000 0.544840 -0.045870 2.567341 34.893912 10.400133 -6.770080 16.881443 -4.536464 -2.126195 42.072064 3.735934 2.415092 -0.975327 0.118250 0.047640 -0.175770 -0.138010 
